<?xml version="1.0" encoding="UTF-8"?>
<svg width="1040px" height="353px" viewBox="0 0 1040 353" version="1.1" xmlns="http://www.w3.org/2000/svg" xmlns:xlink="http://www.w3.org/1999/xlink">
    <title>Banner Illustration</title>
    <defs>
        <rect id="path-1" x="0" y="209.025" width="1000" height="120" rx="60"></rect>
        <filter x="-3.1%" y="-24.2%" width="106.2%" height="151.7%" filterUnits="objectBoundingBox" id="filter-2">
            <feOffset dx="0" dy="2" in="SourceAlpha" result="shadowOffsetOuter1"></feOffset>
            <feGaussianBlur stdDeviation="10" in="shadowOffsetOuter1" result="shadowBlurOuter1"></feGaussianBlur>
            <feColorMatrix values="0 0 0 0 0   0 0 0 0 0   0 0 0 0 0  0 0 0 0.1 0" type="matrix" in="shadowBlurOuter1"></feColorMatrix>
        </filter>
    </defs>
    <g id="Page-1" stroke="none" stroke-width="1" fill="none" fill-rule="evenodd">
        <g id="Open-Science-Stack-Website---3" transform="translate(-200.000000, -32.000000)">
            <g id="Banner-Illustration" transform="translate(220.000000, 32.975000)">
                <g id="Rectangle">
                    <use fill="black" fill-opacity="1" filter="url(#filter-2)" xlink:href="#path-1"></use>
                    <use fill="#FFFFFF" fill-rule="evenodd" xlink:href="#path-1"></use>
                </g>
                <g id="Open-Interfaces" transform="translate(820.000000, 249.025000)" stroke="#333333" stroke-width="2">
                    <rect id="Rectangle" x="0" y="0" width="40" height="40" rx="5"></rect>
                    <rect id="Rectangle" x="5" y="23" width="12" height="12" rx="2"></rect>
                    <path d="M17,11 C17,14.3137085 14.3137085,17 11,17 C7.6862915,17 5,14.3137085 5,11 C5,7.6862915 7.6862915,5 11,5" id="Path" stroke-linecap="round"></path>
                    <rect id="Rectangle" x="23" y="23" width="12" height="12" rx="2"></rect>
                    <line x1="25.5" y1="17.9800948" x2="25.5" y2="5.98009478" id="Path-16" stroke-linecap="round"></line>
                    <line x1="29.5" y1="17.9800948" x2="29.5" y2="8.98009478" id="Path-16" stroke-linecap="round"></line>
                    <line x1="33.5" y1="17.9800948" x2="33.5" y2="11.9800948" id="Path-16" stroke-linecap="round"></line>
                </g>
                <text id="Self-Service" font-family="Varta-Bold, Varta" font-size="18" font-weight="bold" line-spacing="20" fill="#333333">
                    <tspan x="95" y="266.025">Self</tspan>
                    <tspan x="95" y="286.025">Service</tspan>
                </text>
                <g id="Self-Service" transform="translate(40.000000, 249.025000)" fill="#333333" fill-rule="nonzero">
                    <g id="Group" transform="translate(20.000000, 19.996349) scale(-1, 1) rotate(-180.000000) translate(-20.000000, -19.996349) ">
                        <path d="M17.9921875,39.890625 C17.46875,39.765625 16.7734375,39.34375 16.4296875,38.9453125 C15.96875,38.421875 15.7265625,37.8046875 15.5078125,36.5625 C15.3984375,35.9375 15.2890625,35.359375 15.2734375,35.2734375 C15.25,35.1640625 15.09375,35.0625 14.7109375,34.9296875 C14.421875,34.828125 13.8359375,34.59375 13.421875,34.40625 L12.65625,34.0625 L11.6484375,34.765625 C11.1015625,35.1484375 10.453125,35.5546875 10.2109375,35.65625 C9.375,36.03125 8.40625,36 7.5234375,35.5703125 C6.875,35.2578125 4.7421875,33.125 4.4296875,32.4765625 C4,31.59375 3.96875,30.625 4.34375,29.7890625 C4.4453125,29.546875 4.8515625,28.8984375 5.234375,28.3515625 L5.9375,27.34375 L5.59375,26.578125 C5.40625,26.1640625 5.171875,25.578125 5.0703125,25.2890625 C4.9375,24.90625 4.8359375,24.75 4.7265625,24.7265625 C4.640625,24.7109375 4.0625,24.6015625 3.4375,24.4921875 C1.765625,24.1953125 1.0390625,23.796875 0.4921875,22.8828125 C0.078125,22.1875 0,21.7265625 0,20 C0,18.2734375 0.078125,17.8125 0.4921875,17.1171875 C1.0390625,16.203125 1.765625,15.8046875 3.4375,15.5078125 C4.0625,15.3984375 4.640625,15.2890625 4.7265625,15.2734375 C4.8359375,15.25 4.9375,15.09375 5.0703125,14.7109375 C5.171875,14.421875 5.40625,13.8359375 5.59375,13.421875 L5.9375,12.65625 L5.234375,11.6484375 C4.8515625,11.1015625 4.4453125,10.453125 4.34375,10.2109375 C3.96875,9.375 4,8.40625 4.4296875,7.5234375 C4.7421875,6.875 6.875,4.7421875 7.5234375,4.4296875 C8.40625,4 9.375,3.96875 10.2109375,4.34375 C10.453125,4.4453125 11.1015625,4.8515625 11.6484375,5.234375 L12.65625,5.9375 L13.421875,5.59375 C13.8359375,5.40625 14.421875,5.171875 14.7109375,5.0703125 C15.09375,4.9375 15.25,4.8359375 15.2734375,4.7265625 C15.2890625,4.640625 15.3984375,4.0625 15.5078125,3.4375 C15.8046875,1.765625 16.203125,1.0390625 17.1171875,0.4921875 C17.8125,0.078125 18.2734375,0 20,0 C21.7265625,0 22.1875,0.078125 22.8828125,0.4921875 C23.3984375,0.8046875 23.78125,1.234375 24.0703125,1.828125 C24.4921875,2.703125 24.4296875,3.34375 23.890625,3.671875 C23.2734375,4.046875 22.65625,3.765625 22.359375,2.984375 C22.2265625,2.640625 22.09375,2.4375 21.890625,2.28125 L21.6171875,2.0703125 L20.0078125,2.0703125 C18.4453125,2.0703125 18.390625,2.078125 18.140625,2.25 C18,2.3515625 17.8359375,2.53125 17.7734375,2.6484375 C17.71875,2.765625 17.5390625,3.578125 17.3828125,4.4609375 C17.015625,6.5 17.0703125,6.4296875 15.7265625,6.8671875 C15.1796875,7.046875 14.3125,7.40625 13.8046875,7.6640625 C13.1640625,7.984375 12.7890625,8.125 12.5859375,8.125 C12.2578125,8.125 11.9765625,7.9609375 10.46875,6.8828125 C8.9140625,5.78125 8.7890625,5.796875 7.296875,7.296875 C5.796875,8.7890625 5.78125,8.9140625 6.8828125,10.46875 C7.9609375,11.9765625 8.125,12.2578125 8.125,12.5859375 C8.125,12.78125 7.984375,13.1640625 7.6640625,13.8046875 C7.40625,14.3125 7.046875,15.1796875 6.859375,15.734375 C6.4140625,17.0703125 6.4765625,17.03125 4.515625,17.375 C2.765625,17.6875 2.515625,17.7734375 2.2578125,18.1328125 C2.078125,18.390625 2.0703125,18.4375 2.0703125,20 C2.0703125,21.5546875 2.078125,21.609375 2.25,21.859375 C2.3515625,22 2.53125,22.1640625 2.6484375,22.2265625 C2.7734375,22.2890625 3.5859375,22.4609375 4.4609375,22.6171875 C6.484375,22.9765625 6.40625,22.921875 6.859375,24.265625 C7.046875,24.8203125 7.40625,25.6875 7.6640625,26.1953125 C7.984375,26.8359375 8.125,27.21875 8.125,27.4140625 C8.125,27.7421875 7.9609375,28.0234375 6.8828125,29.53125 C5.78125,31.0859375 5.796875,31.2109375 7.296875,32.703125 C8.7890625,34.203125 8.9140625,34.21875 10.46875,33.1171875 C11.9765625,32.0390625 12.2578125,31.875 12.5859375,31.875 C12.7890625,31.875 13.1640625,32.015625 13.8046875,32.3359375 C14.3125,32.59375 15.1640625,32.9453125 15.703125,33.125 C16.640625,33.4296875 16.890625,33.5625 17.0390625,33.8359375 C17.078125,33.9140625 17.2265625,34.65625 17.375,35.4921875 C17.6875,37.2265625 17.7734375,37.484375 18.1328125,37.7421875 C18.390625,37.921875 18.4375,37.9296875 20,37.9296875 C21.5546875,37.9296875 21.609375,37.921875 21.859375,37.75 C22,37.6484375 22.1640625,37.46875 22.2265625,37.3515625 C22.28125,37.234375 22.4609375,36.421875 22.6171875,35.5390625 C22.984375,33.5 22.9296875,33.5703125 24.2734375,33.1328125 C24.8203125,32.953125 25.6875,32.59375 26.1953125,32.3359375 C26.8359375,32.015625 27.2109375,31.875 27.4140625,31.875 C27.7421875,31.875 28.0234375,32.0390625 29.53125,33.1171875 C31.0859375,34.21875 31.2109375,34.203125 32.703125,32.703125 C34.203125,31.2109375 34.21875,31.0859375 33.1171875,29.53125 C32.0390625,28.0234375 31.875,27.7421875 31.875,27.4140625 C31.875,27.2109375 32.015625,26.8359375 32.3359375,26.1953125 C32.59375,25.6875 32.9453125,24.8359375 33.125,24.296875 C33.4296875,23.359375 33.5625,23.109375 33.8359375,22.9609375 C33.9140625,22.921875 34.65625,22.7734375 35.4921875,22.625 C37.2265625,22.3125 37.484375,22.2265625 37.7421875,21.8671875 C37.921875,21.609375 37.9296875,21.5625 37.9296875,19.9921875 L37.9296875,18.3828125 L37.71875,18.109375 C37.5625,17.90625 37.359375,17.7734375 37.015625,17.640625 C36.234375,17.34375 35.953125,16.7265625 36.328125,16.109375 C36.65625,15.5703125 37.296875,15.5078125 38.171875,15.9296875 C38.7734375,16.21875 39.1953125,16.6015625 39.5234375,17.140625 C39.921875,17.8046875 40,18.265625 40,20 C40,21.7265625 39.921875,22.1875 39.5078125,22.8828125 C38.9453125,23.8203125 38.25,24.1875 36.4140625,24.5234375 C35.7109375,24.65625 35.125,24.7734375 35.1171875,24.78125 C35.109375,24.796875 35.0234375,25.03125 34.921875,25.3125 C34.828125,25.59375 34.59375,26.1640625 34.3984375,26.578125 L34.0625,27.34375 L34.765625,28.3515625 C35.1484375,28.8984375 35.5546875,29.546875 35.65625,29.7890625 C36.03125,30.625 36,31.59375 35.5703125,32.4765625 C35.2578125,33.125 33.125,35.2578125 32.4765625,35.5703125 C31.59375,36 30.625,36.03125 29.7890625,35.65625 C29.546875,35.5546875 28.8984375,35.1484375 28.3515625,34.765625 L27.34375,34.0625 L26.578125,34.40625 C26.1640625,34.59375 25.578125,34.828125 25.2890625,34.9296875 C24.90625,35.0625 24.75,35.1640625 24.7265625,35.2734375 C24.7109375,35.359375 24.6015625,35.9375 24.4921875,36.5625 C24.1953125,38.234375 23.796875,38.9609375 22.8828125,39.5078125 C22.1796875,39.921875 21.7265625,40 19.9609375,39.9921875 C18.9921875,39.9921875 18.2421875,39.9453125 17.9921875,39.890625 Z" id="Path"></path>
                        <path d="M18.65625,29.8359375 C17.796875,29.6328125 17.1875,28.828125 17.1875,27.890625 C17.1875,27.2265625 17.4375,26.875 19.125,25.1484375 C20.0625,24.1875 20.75,23.4140625 20.8203125,23.25 C20.9765625,22.8828125 20.96875,22.453125 20.7890625,22.0703125 C20.640625,21.7421875 18.40625,19.484375 18.046875,19.296875 C17.71875,19.125 17.3671875,19.078125 16.9765625,19.15625 C16.625,19.2265625 16.484375,19.3515625 14.8828125,20.9453125 C13.03125,22.78125 12.7734375,22.9609375 12.0703125,22.96875 C11.59375,22.96875 11,22.703125 10.6484375,22.3359375 C10.25,21.9140625 10.140625,21.5546875 10.1015625,20.5078125 C9.9140625,15.90625 13.140625,11.7734375 17.7265625,10.7265625 C18.03125,10.6640625 18.9453125,10.5859375 19.921875,10.5546875 C21.46875,10.4921875 21.640625,10.4765625 22.140625,10.28125 C22.4296875,10.171875 22.8671875,9.9453125 23.1015625,9.7734375 C23.3359375,9.609375 25.0390625,7.9140625 26.8828125,6.0078125 C28.734375,4.1015625 30.3203125,2.5 30.4140625,2.4453125 C30.6484375,2.3125 31.1328125,2.3203125 31.40625,2.4609375 C31.53125,2.53125 31.6953125,2.6953125 31.765625,2.828125 C31.8984375,3.0859375 31.9296875,3.5859375 31.8203125,3.7890625 C31.78125,3.8515625 30.84375,4.84375 29.734375,5.9921875 C24.703125,11.1953125 24.234375,11.625 23.125,12.078125 C22.2109375,12.4453125 21.8203125,12.515625 20.078125,12.578125 C18.7265625,12.625 18.2734375,12.671875 17.7734375,12.8125 C15.125,13.5390625 13.0234375,15.671875 12.34375,18.328125 C12.1796875,18.953125 12.0390625,20.78125 12.140625,20.78125 C12.1796875,20.78125 12.7890625,20.1796875 13.5,19.4375 C14.21875,18.703125 15.0078125,17.9453125 15.25,17.765625 C16.3125,16.984375 17.765625,16.875 18.9765625,17.4921875 C19.328125,17.671875 21.4609375,19.6484375 22.0390625,20.3203125 C23.1171875,21.5859375 23.265625,23.2265625 22.4140625,24.5703125 C22.28125,24.7890625 21.5390625,25.59375 20.7734375,26.375 C20,27.1484375 19.375,27.8125 19.375,27.8515625 C19.375,27.9609375 20.9296875,27.828125 21.640625,27.65625 C22.4296875,27.4609375 23.5859375,26.9296875 24.25,26.453125 C24.859375,26.0078125 25.75,25.09375 26.1640625,24.484375 C26.65625,23.75 26.9453125,23.078125 27.3046875,21.796875 C27.3359375,21.6875 27.390625,20.7578125 27.421875,19.7265625 C27.46875,18.1796875 27.5078125,17.7578125 27.6484375,17.3125 C27.84375,16.6484375 28.25,15.8359375 28.65625,15.296875 C29.046875,14.78125 35.65625,7.9609375 35.8828125,7.84375 C36.6875,7.4140625 37.5859375,8.125 37.34375,8.984375 C37.28125,9.1953125 36.4296875,10.125 33.8125,12.8125 C31.9140625,14.765625 30.25,16.546875 30.1171875,16.7578125 C29.5703125,17.609375 29.5078125,17.8984375 29.4453125,19.921875 C29.390625,21.84375 29.3203125,22.2890625 28.9453125,23.40625 C27.9765625,26.2578125 25.46875,28.6640625 22.59375,29.5 C21.2734375,29.8828125 19.484375,30.03125 18.65625,29.8359375 Z" id="Path"></path>
                    </g>
                </g>
                <text id="Shared-Resources" font-family="Varta-Bold, Varta" font-size="18" font-weight="bold" line-spacing="20" fill="#333333">
                    <tspan x="272" y="266.025">Shared</tspan>
                    <tspan x="272" y="286.025">Resources</tspan>
                </text>
                <text id="Elasticity" font-family="Varta-Bold, Varta" font-size="18" font-weight="bold" line-spacing="20" fill="#333333">
                    <tspan x="472" y="276.025">Elasticity</tspan>
                </text>
                <text id="Ubiquitous-Access" font-family="Varta-Bold, Varta" font-size="18" font-weight="bold" line-spacing="20" fill="#333333">
                    <tspan x="665" y="266.025">Ubiquitous</tspan>
                    <tspan x="665" y="286.025">Access</tspan>
                </text>
                <text id="Open-Interfaces" font-family="Varta-Bold, Varta" font-size="18" font-weight="bold" line-spacing="20" fill="#333333">
                    <tspan x="870" y="266.025">Open</tspan>
                    <tspan x="870" y="286.025">Interfaces</tspan>
                </text>
                <g id="Ubiquitous-Access" transform="translate(613.000000, 243.025000)">
                    <path d="M24.9051049,44.3223274 C24.3816674,44.1973274 23.6863549,43.7754524 23.3426049,43.3770149 C22.8816674,42.8535774 22.6394799,42.2363899 22.4207299,40.9942024 C22.3113549,40.3692024 22.2019799,39.7910774 22.1863549,39.7051399 C22.1629174,39.5957649 22.0066674,39.4942024 21.6238549,39.3613899 C21.3347924,39.2598274 20.7488549,39.0254524 20.3347924,38.8379524 L19.5691674,38.4942024 L18.5613549,39.1973274 C18.0144799,39.5801399 17.3660424,39.9863899 17.1238549,40.0879524 C16.2879174,40.4629524 15.3191674,40.4317024 14.4363549,40.0020149 C13.7879174,39.6895149 11.6551049,37.5567024 11.3426049,36.9082649 C10.9129174,36.0254524 10.8816674,35.0567024 11.2566674,34.2207649 C11.3582299,33.9785774 11.7644799,33.3301399 12.1472924,32.7832649 L12.8504174,31.7754524 L12.5066674,31.0098274 C12.3191674,30.5957649 12.0847924,30.0098274 11.9832299,29.7207649 C11.8504174,29.3379524 11.7488549,29.1817024 11.6394799,29.1582649 C11.5535424,29.1426399 10.9754174,29.0332649 10.3504174,28.9238899 C8.67854244,28.6270149 7.95197994,28.2285774 7.40510494,27.3145149 C6.99104244,26.6192024 6.91291744,26.1582649 6.91291744,24.4317024 C6.91291744,22.7051399 6.99104244,22.2442024 7.40510494,21.5488899 C7.95197994,20.6348274 8.67854244,20.2363899 10.3504174,19.9395149 C10.9754174,19.8301399 11.5535424,19.7207649 11.6394799,19.7051399 C11.7488549,19.6817024 11.8504174,19.5254524 11.9832299,19.1426399 C12.0847924,18.8535774 12.3191674,18.2676399 12.5066674,17.8535774 L12.8504174,17.0879524 L12.1472924,16.0801399 C11.7644799,15.5332649 11.3582299,14.8848274 11.2566674,14.6426399 C10.8816674,13.8067024 10.9129174,12.8379524 11.3426049,11.9551399 C11.6551049,11.3067024 13.7879174,9.17388994 14.4363549,8.86138994 C15.3191674,8.43170244 16.2879174,8.40045244 17.1238549,8.77545244 C17.3660424,8.87701494 18.0144799,9.28326494 18.5613549,9.66607744 L19.5691674,10.3692024 C19.6577091,11.8275358 19.6342716,12.5567024 19.4988549,12.5567024 C19.1707299,12.5567024 18.8894799,12.3926399 17.3816674,11.3145149 C15.8269799,10.2129524 15.7019799,10.2285774 14.2097924,11.7285774 C12.7097924,13.2207649 12.6941674,13.3457649 13.7957299,14.9004524 C14.8738549,16.4082649 15.0379174,16.6895149 15.0379174,17.0176399 C15.0379174,17.2129524 14.8972924,17.5957649 14.5769799,18.2363899 C14.3191674,18.7442024 13.9597924,19.6113899 13.7722924,20.1660774 C13.3269799,21.5020149 13.3894799,21.4629524 11.4285424,21.8067024 C9.67854244,22.1192024 9.42854244,22.2051399 9.17072994,22.5645149 C8.99104244,22.8223274 8.98322994,22.8692024 8.98322994,24.4317024 C8.98322994,25.9863899 8.99104244,26.0410774 9.16291744,26.2910774 C9.26447994,26.4317024 9.44416744,26.5957649 9.56135494,26.6582649 C9.68635494,26.7207649 10.4988549,26.8926399 11.3738549,27.0488899 C13.3972924,27.4082649 13.3191674,27.3535774 13.7722924,28.6973274 C13.9597924,29.2520149 14.3191674,30.1192024 14.5769799,30.6270149 C14.8972924,31.2676399 15.0379174,31.6504524 15.0379174,31.8457649 C15.0379174,32.1738899 14.8738549,32.4551399 13.7957299,33.9629524 C12.6941674,35.5176399 12.7097924,35.6426399 14.2097924,37.1348274 C15.7019799,38.6348274 15.8269799,38.6504524 17.3816674,37.5488899 C18.8894799,36.4707649 19.1707299,36.3067024 19.4988549,36.3067024 C19.7019799,36.3067024 20.0769799,36.4473274 20.7176049,36.7676399 C21.2254174,37.0254524 22.0769799,37.3770149 22.6160424,37.5567024 C23.5535424,37.8613899 23.8035424,37.9942024 23.9519799,38.2676399 C23.9910424,38.3457649 24.1394799,39.0879524 24.2879174,39.9238899 C24.6004174,41.6582649 24.6863549,41.9160774 25.0457299,42.1738899 C25.3035424,42.3535774 25.3504174,42.3613899 26.9129174,42.3613899 C28.4676049,42.3613899 28.5222924,42.3535774 28.7722924,42.1817024 C28.9129174,42.0801399 29.0769799,41.9004524 29.1394799,41.7832649 C29.1941674,41.6660774 29.3738549,40.8535774 29.5301049,39.9707649 C29.8972924,37.9317024 29.8426049,38.0020149 31.1863549,37.5645149 C31.7332299,37.3848274 32.6004174,37.0254524 33.1082299,36.7676399 C33.7488549,36.4473274 34.1238549,36.3067024 34.3269799,36.3067024 C34.6551049,36.3067024 34.9363549,36.4707649 36.4441674,37.5488899 C37.9988549,38.6504524 38.1238549,38.6348274 39.6160424,37.1348274 C41.1160424,35.6426399 41.1316674,35.5176399 40.0301049,33.9629524 C38.9519799,32.4551399 38.7879174,32.1738899 38.7879174,31.8457649 C38.7879174,31.6426399 38.9285424,31.2676399 39.2488549,30.6270149 C39.5066674,30.1192024 39.8582299,29.2676399 40.0379174,28.7285774 C40.3426049,27.7910774 40.4754174,27.5410774 40.7488549,27.3926399 C40.8269799,27.3535774 41.5691674,27.2051399 42.4051049,27.0567024 C44.1394799,26.7442024 44.3972924,26.6582649 44.6551049,26.2988899 C44.8347924,26.0410774 46.8347924,26.6192024 46.4207299,27.3145149 C45.8582299,28.2520149 45.1629174,28.6192024 43.3269799,28.9551399 C42.6238549,29.0879524 42.0379174,29.2051399 42.0301049,29.2129524 C42.0222924,29.2285774 41.9363549,29.4629524 41.8347924,29.7442024 C41.7410424,30.0254524 41.5066674,30.5957649 41.3113549,31.0098274 L40.9754174,31.7754524 L41.6785424,32.7832649 C42.0613549,33.3301399 42.4676049,33.9785774 42.5691674,34.2207649 C42.9441674,35.0567024 42.9129174,36.0254524 42.4832299,36.9082649 C42.1707299,37.5567024 40.0379174,39.6895149 39.3894799,40.0020149 C38.5066674,40.4317024 37.5379174,40.4629524 36.7019799,40.0879524 C36.4597924,39.9863899 35.8113549,39.5801399 35.2644799,39.1973274 L34.2566674,38.4942024 L33.4910424,38.8379524 C33.0769799,39.0254524 32.4910424,39.2598274 32.2019799,39.3613899 C31.8191674,39.4942024 31.6629174,39.5957649 31.6394799,39.7051399 C31.6238549,39.7910774 31.5144799,40.3692024 31.4051049,40.9942024 C31.1082299,42.6660774 30.7097924,43.3926399 29.7957299,43.9395149 C29.0926049,44.3535774 28.6394799,44.4317024 26.8738549,44.4238899 C25.9051049,44.4238899 25.1551049,44.3770149 24.9051049,44.3223274 Z" id="Path" fill="#333333" fill-rule="nonzero" transform="translate(26.694970, 26.469733) rotate(220.000000) translate(-26.694970, -26.469733) "></path>
                    <circle id="Oval" stroke="#333333" stroke-width="2" cx="9.74064222" cy="23.0883905" r="4"></circle>
                    <circle id="Oval" stroke="#333333" stroke-width="2" cx="26.2406422" cy="27.5883905" r="6.5"></circle>
                    <path d="M18.7406422,38.5883905 C18.7406422,33.8939701 14.9350626,30.0883905 10.2406422,30.0883905 C5.54622184,30.0883905 1.74064222,33.8939701 1.74064222,38.5883905 L18.7406422,38.5883905 Z" id="Path" stroke="#333333" stroke-width="2"></path>
                </g>
                <g id="Shared-Resources" transform="translate(222.000000, 249.025000)" fill="#333333" fill-rule="nonzero" stroke="#333333" stroke-width="0.3">
                    <g id="Group" transform="translate(17.500000, 19.551014) scale(-1, 1) rotate(-180.000000) translate(-17.500000, -19.551014) translate(0.000000, 0.000000)">
                        <path d="M16.2965802,-0.149182393 L17.3579126,-0.148262191 C22.7441621,-0.139119197 22.7944646,-0.0672938876 22.9140306,0.0522721054 C23.0611537,0.199395265 23.1134616,0.2875681 23.1160053,1.5529673 C23.116314,3.96563939 23.0422107,4.24437772 22.4013828,4.89384624 C21.6619224,5.64115254 21.3712752,5.76101104 19.7959987,5.77036324 L19.5620331,5.77100335 L18.3010635,5.77100335 L16.857587,7.78265687 C16.0390049,8.92394911 15.3457053,9.89170431 15.3142204,9.94680278 C15.5760249,10.8108309 15.6269095,11.1313297 15.6269048,11.7554245 C15.6351,12.7962134 15.4209063,13.5251242 14.8671654,14.3264197 C13.6934241,15.8425932 12.602891,17.1974791 11.4447035,18.6124342 C10.0247066,20.3539398 8.82020556,21.8458773 8.47481896,22.281543 C8.78808562,22.6160442 8.97509585,22.7723431 9.17923098,22.9349897 C9.65444511,23.2993205 11.8721217,25.0575992 14.1132936,26.8394501 C14.8831874,27.448836 15.6100797,28.0245685 16.2348655,28.519428 C17.260959,29.3321419 18.0107828,29.9262063 18.221287,30.0909886 C19.0428581,29.8196968 19.5242073,29.6334391 20.1404769,29.3882283 C21.0832441,29.0105048 21.8010646,28.7190102 22.5685704,28.4039279 L22.9013442,28.2671283 L27.4872724,26.3815436 L27.4871674,24.2281529 C27.4871073,24.1584629 27.4870588,24.0922906 27.4869968,24.0294235 L27.4862605,23.6901847 C27.4827894,22.8822533 27.4629597,22.8117151 27.3236653,22.6085773 C26.8111188,21.8630551 26.687419,20.8202103 26.9846548,19.9126207 L27.0548027,19.7203651 L26.0887188,17.6131416 C25.4099599,16.6281134 24.8746983,15.7500766 24.8746983,15.6596403 C24.8746983,15.5900748 25.2199248,15.0138472 25.6083684,14.408707 L25.8227175,14.0786347 C26.1452244,13.5878398 26.4599033,13.1358385 26.601341,12.9842981 C27.9366254,13.599989 27.5928001,14.143502 27.2145579,14.6838402 C27.0875327,14.8683292 26.9651284,15.0458868 26.8605826,15.1975392 C26.9092126,16.1188966 27.1055345,16.4296752 27.313493,16.750734 C27.6778885,17.3133094 28.0776351,17.9080521 28.274497,18.1654892 C29.6212187,17.5490409 30.6277184,17.5909685 31.7289221,18.1524235 C32.0933903,17.6850243 32.3034328,17.3925493 32.516762,17.0898882 C33.0183976,16.3710316 33.3258899,15.9184313 33.433613,15.7353919 C33.2598329,15.2916466 33.1021098,15.0496804 32.8651337,14.7069704 C32.4660398,14.1210665 32.1582519,13.5597073 32.1582519,13.4587404 C32.1582519,13.2069375 32.2645512,12.9964132 32.4283395,12.8614228 C32.5931772,12.7255676 32.81821,12.6639885 33.0638865,12.7191601 C33.3019554,12.776625 33.4467804,12.9023707 34.8285658,14.9462283 C35.0179146,15.20771 35.15,15.5335469 35.1497412,15.6763655 C35.1420296,15.8074617 34.7877403,16.4219772 34.0806519,17.4542387 L33.943937,17.6526672 L32.8194072,19.2862745 C33.3530767,20.5371127 33.3036079,21.553403 32.8767471,22.3717825 L32.7923384,22.5229183 L32.537421,26.621764 C33.1429519,27.6212545 33.2786191,28.3105861 33.2102127,28.9738314 C33.1418734,29.6364247 32.8699752,30.2721639 32.4081253,30.7506568 C32.2890585,30.8736926 29.7770163,32.7176532 27.1944243,34.5944213 L26.6407783,34.9964728 C24.4286456,36.601766 22.2865569,38.1425735 21.6770309,38.5558244 L21.5574242,38.6350311 C20.9016989,39.0448594 20.082399,39.2597855 19.1899385,39.2518194 C18.7469599,39.2518194 18.2223698,39.2005223 18.0178075,39.1432442 C17.1001637,38.8892535 16.1588254,38.2655759 15.6266174,37.5614231 C15.2899346,37.1179873 14.8493714,36.2302794 14.775639,35.8534176 C14.7686098,35.818272 14.7342599,35.7670663 14.6560199,35.6856235 L14.5971758,35.6266932 C14.1700611,35.2125067 12.8496477,34.1713783 9.28769014,31.3497253 C4.3272106,27.4160726 3.86970239,27.0464146 3.51934133,26.9851241 C2.25872712,26.8229451 1.22803432,26.121197 0.580417362,25.1604132 C-0.0673827567,24.1993576 -0.331115404,22.9795779 -0.0192380635,21.7895254 C0.249089482,20.7468812 0.975269108,19.7971558 1.90556581,19.2478112 L2.10794687,19.1363348 L2.63320515,18.8664104 L4.46382041,15.0643638 L4.70747993,14.5566114 C5.6005956,12.6972805 6.47338087,10.8994809 6.76476695,10.3123111 L6.800845,10.2398543 L7.25039864,9.35524876 L5.98130371,7.58459528 L4.71052122,5.80856192 L3.28873839,5.7709486 C1.4525983,5.72132319 1.22187375,5.63266899 0.537185349,4.89022288 C-0.0205836685,4.27215451 -0.12811774,4.02656444 -0.141173892,2.4250113 L-0.14240208,2.19805064 L-0.142427384,1.57648338 C-0.140024843,0.35679359 -0.0920443586,0.216041351 0.0355337828,0.0772370606 C0.278299143,-0.0889707575 0.790291946,-0.13771253 4.60220233,-0.146631803 L4.90198601,-0.147240665 L6.39971423,-0.148994449 L16.2965802,-0.149182393 Z M30.1627704,27.0674808 C29.7545117,27.0674808 29.1898047,27.2977447 23.8071075,29.5104569 C20.5340161,30.8591284 17.6936053,32.0721491 17.4806397,32.2062386 C16.8410635,32.6163258 16.4118678,33.3052425 16.2396099,34.0526197 C16.0673123,34.800169 16.151495,35.6087164 16.5472512,36.2607717 C16.8678455,36.7850362 17.2555074,37.1696725 17.7209857,37.4161759 C18.1874173,37.663184 18.7308116,37.771022 19.3586923,37.7483275 C19.8374191,37.7258786 20.1386939,37.6764621 20.3866561,37.563752 C20.5675674,37.4808335 22.9558305,35.7940642 25.4483172,34.0119187 L25.4483172,34.0119187 L25.9163664,33.677017 L26.485922,33.2687851 L26.7208762,33.1001442 C28.9853824,31.4741167 31.03639,29.9822744 31.2478945,29.784639 C31.5592128,29.4950401 31.7296105,29.1171311 31.7528496,28.7272316 C31.7761216,28.3367792 31.6518863,27.9350379 31.3766614,27.5982495 C31.0883376,27.2522718 30.6678884,27.0674808 30.1627704,27.0674808 Z M8.03394689,24.1076473 C7.9719645,24.2602289 7.87121186,24.4873596 7.766104,24.7031073 C7.43790741,25.392334 6.69835476,26.1652018 5.76554652,26.6649205 L5.76554652,26.6649205 L10.1867722,30.1805939 L10.4916258,30.4215426 C11.8027314,31.4573541 12.9792586,32.3793238 13.8056096,32.9554703 C14.1130007,33.1697889 14.3699905,33.3349665 14.8189255,33.479943 C15.0277396,32.6787695 15.7661735,31.6107978 16.7560289,30.828055 C16.3529428,30.4849808 13.2094498,28.0315254 10.8157912,26.1810189 C9.50399176,25.1668837 8.39562369,24.3188745 8.03394689,24.1076473 Z M28.9748132,23.9448267 L28.9748132,24.8511683 L28.9752833,24.9580792 C28.9787999,25.2050659 29.0085152,25.436132 29.2589004,25.6802994 C29.6482376,25.5775225 30.3986307,25.5553599 31.005241,25.6784112 L31.005241,25.6784112 L30.6724403,24.0592077 L30.4999496,24.0917768 C30.0431386,24.1648294 29.6030968,24.1262011 28.9748132,23.9448267 L28.9748132,23.9448267 Z M4.64118832,20.2067896 C4.0580111,20.0572571 3.45093169,20.1326548 2.91659819,20.3845738 C2.37866005,20.6381923 1.91416668,21.0707248 1.62081889,21.6348552 C1.40416811,22.0532158 1.38439537,22.1510796 1.38439537,22.8006896 C1.38439537,23.4143735 1.41124321,23.5724651 1.57608846,23.9246345 C1.9145684,24.646725 2.44888235,25.1278681 3.20856539,25.3986463 C3.66547475,25.5634321 4.54042513,25.5237667 5.02630315,25.3294155 C5.58002047,25.0974315 5.92607466,24.8199208 6.24921023,24.3540044 C6.78507937,23.5595465 6.85547504,22.6411737 6.55393235,21.8619536 C6.25290206,21.0840576 5.58199154,20.4466757 4.64118832,20.2067896 Z M30.5290096,19.2503435 C30.2281921,19.1562607 29.9028101,19.1570879 29.5720849,19.2552152 C29.184554,19.3681744 28.8858349,19.5805157 28.6775067,19.8476026 C28.4488922,20.1406976 28.3291152,20.4988541 28.3187007,20.8601594 C28.3082655,21.2221794 28.4076068,21.5877283 28.6190072,21.8946594 C28.8117894,22.1745588 29.0978365,22.4050291 29.4770306,22.5407041 C29.8275153,22.6648333 30.0761036,22.6700312 30.4996689,22.5677913 C30.9472872,22.4522578 31.4915194,21.9515538 31.6439055,21.5089084 C31.7538166,21.1901661 31.7844272,20.8843154 31.7327358,20.5975512 C31.6817029,20.3144402 31.55033,20.0508271 31.3405513,19.8121134 C31.1057263,19.5333104 30.830094,19.3445098 30.5290096,19.2503435 Z M11.1955794,8.79154565 L10.9554084,8.7950995 C9.9302572,8.83279599 9.10807519,9.28230124 8.58824299,10.080884 C8.36720697,10.4142595 7.45579299,12.2636001 6.54194205,14.1742214 L6.54194205,14.1742214 L6.29211967,14.6979878 L6.11693865,15.0670141 C5.65280934,16.0466751 5.21679157,16.9827392 4.90370853,17.6754727 C4.76007077,17.9932884 4.64247883,18.2595084 4.79714928,18.7168409 C5.70659092,18.8265881 6.86787838,19.5816186 7.86198921,20.6614656 C8.15961261,20.2945005 8.99865607,19.2671473 10.0189652,18.0179253 L10.0189652,18.0179253 L10.7293429,17.1481373 L10.8940816,16.9453147 C12.3699408,15.1259362 13.650792,13.4843787 13.7875606,13.2488327 C14.2534404,12.4071785 14.2834403,11.3593303 13.8462212,10.4773537 C13.5702363,9.9102705 13.1726708,9.47367466 12.6806342,9.18718859 C12.1890022,8.90093815 11.6039586,8.76493438 10.9554084,8.7950995 Z M12.3121675,5.77186404 L10.4095871,5.77177721 L10.0508569,5.77239458 C8.989352,5.77450813 8.06440216,5.77895576 7.39434451,5.78522519 C7.0976154,5.78800156 6.85103966,5.7911334 6.50473128,5.80220791 C6.86478327,6.32159255 8.17499196,8.08217901 8.70918064,7.93746017 C9.48846168,7.46958376 10.1568485,7.28397485 11.051359,7.28397485 C12.2641137,7.28397485 13.3117477,7.67131577 14.5117678,8.57995103 C14.7664549,8.54624028 15.3176833,7.9111681 15.6861318,7.39438307 C16.1194466,6.78661688 16.6250186,5.8865257 16.3503103,5.81280678 C16.1301934,5.80601518 15.8105611,5.7996086 15.4126973,5.79393846 C14.6283825,5.78276083 13.5406996,5.77446588 12.3121675,5.77186404 L12.3121675,5.77186404 Z M21.6337332,1.33753592 L1.34481084,1.33753592 L1.34481084,2.28798587 L1.34528388,2.4816301 C1.35030709,3.40397882 1.39959161,3.65478389 1.69075411,3.97848033 C1.92472999,4.24401229 2.01926669,4.26406111 5.74986367,4.26929247 L5.74986367,4.26929247 L7.21998809,4.26912715 L7.57010478,4.26864728 C8.40432285,4.26737436 9.36037623,4.26506222 10.4567753,4.26241072 L10.4567753,4.26241072 L11.5913419,4.25970036 L11.9848194,4.25904539 C19.8708287,4.24613688 20.7948807,4.25714499 21.1128705,4.10008245 C21.577038,3.75043576 21.591177,3.62373369 21.6129569,2.40406132 L21.6129569,2.40406132 L21.6337332,1.33753592 Z" id="Shape"></path>
                        <path d="M19.1984688,32.9318181 C19.5491199,32.9370517 19.8975872,33.0323105 20.2008929,33.2165118 C20.4844062,33.388693 20.7287089,33.6384463 20.8983756,33.965366 C21.2536797,34.6460087 21.1958917,35.3776222 20.8608485,35.9376767 C20.5255802,36.4981073 19.9118725,36.8887398 19.1503539,36.8844767 C18.8917654,36.8844767 18.5474578,36.8140842 18.35132,36.7202619 C17.9705226,36.5448383 17.6829745,36.2997813 17.4893398,35.9942689 C17.2956583,35.6886825 17.1952993,35.3214246 17.1952993,34.8977222 C17.1952993,34.4529981 17.2465644,34.2819349 17.4527253,33.9125862 C17.637065,33.5915451 17.8924952,33.349617 18.1836757,33.1862024 C18.4951754,33.0113842 18.8478178,32.9265846 19.1984688,32.9318181 Z M19.4449893,34.5077279 C19.3640825,34.4543859 19.2523707,34.4553592 18.6828353,34.9056391 C18.6828353,35.0151855 18.711477,35.1112239 18.7609209,35.1889371 C18.8126799,35.2702888 18.886856,35.331182 18.9715633,35.3663199 C19.0556189,35.4011874 19.1500334,35.4106602 19.2429696,35.3895884 C19.3315903,35.369495 19.418296,35.3216513 19.4945463,35.2439348 C19.572546,35.1673962 19.6192493,35.0817008 19.6391166,34.993766 C19.6602214,34.9003537 19.651145,34.8049385 19.6170869,34.7197933 C19.5830788,34.634773 19.5241231,34.559901 19.4449893,34.5077279 Z" id="Shape"></path>
                        <path d="M11.0817124,9.83860051 C11.49366,9.84446747 11.9170013,9.98760491 12.2972513,10.3129539 C12.7934513,10.7407125 13.0064136,11.2029789 13.0064136,11.8357747 C13.0064136,12.5208715 12.6699083,13.1073468 12.1739972,13.4655048 C11.6776342,13.8239893 11.0219566,13.9538135 10.3814329,13.7259579 C9.87790114,13.5382003 9.5017831,13.1973542 9.2541629,12.6935751 C9.03338429,12.2439159 8.9984111,11.7971534 9.09290072,11.3952313 C9.19813932,10.9475871 9.46527806,10.5547954 9.82139773,10.2759186 C10.1781175,9.99657185 10.6234214,9.83207353 11.0817124,9.83860051 Z" id="Shape"></path>
                    </g>
                </g>
                <g id="Elasticity" transform="translate(421.000000, 251.025000)" stroke="#333333">
                    <g id="robot-arm" transform="translate(10.000000, 7.000000)" fill="#333333" fill-rule="nonzero" stroke-width="0.3">
                        <g id="Group" transform="translate(10.000000, 11.172008) scale(-1, 1) rotate(-180.000000) translate(-10.000000, -11.172008) ">
                            <path d="M9.826337,-0.149109564 L10.4159708,-0.148260899 C12.6822897,-0.143955668 12.988835,-0.112355656 13.0780482,-0.0627604532 C13.2257736,0.0702228045 13.2705334,0.11515117 13.273178,0.798924371 C13.2736281,2.35377363 13.2188119,2.47413763 12.8005184,2.88766357 C12.4191771,3.27354465 12.252757,3.35279764 11.365619,3.36119692 L11.1783046,3.36200191 L10.4907453,3.36200191 L9.68514514,4.48469998 C9.32056527,4.99300846 8.99950376,5.44146485 8.86553422,5.63167995 C8.96882009,6.19785947 8.99394812,6.37803174 8.99394363,6.71687928 C8.99874586,7.32676228 8.87276904,7.75369966 8.55255276,8.21726058 C8.43437929,8.39452078 7.55305856,9.49931118 6.58965319,10.6763013 C5.80641397,11.6368777 5.13704116,12.4619878 4.92342482,12.7294254 C5.67958007,13.3609364 6.88607821,14.3176028 8.10463695,15.286422 C8.54458218,15.6346473 8.95995482,15.9636417 9.3169801,16.2464224 C9.86884705,16.6835267 10.2805328,17.0097515 10.4261807,17.1242406 C10.6946862,17.0408433 10.8604919,16.9784304 11.0703459,16.8968592 C11.4809982,16.7372369 12.0580363,16.5051498 12.7831943,16.2077578 L13.062036,16.0931887 L15.6426902,15.0321075 L15.6421349,13.6240267 C15.6396944,13.1095449 15.6398597,13.0712685 15.5605489,12.9556067 C15.2781657,12.5448675 15.1941814,11.9816857 15.3255643,11.4721565 L15.3773584,11.3045833 L14.8467091,10.0892251 C14.4502213,9.51280191 14.1498276,9.00111681 14.1498276,8.9483659 C14.1498276,8.86691509 14.9505376,7.5934844 15.1537699,7.37573559 C16.0401367,7.74045685 15.8501753,8.07345036 15.6211301,8.4029685 C15.4709418,9.13100003 15.5369524,9.33390364 15.6378463,9.4991997 L15.7576399,9.68420406 C15.9183051,9.92935476 16.0784578,10.1664024 16.1772254,10.3005969 C16.9261425,9.96899474 17.496722,9.99070333 18.1123101,10.2917706 C18.3044858,10.043742 18.4199909,9.88263698 18.5368596,9.7166935 C18.7407052,9.42725038 18.9495314,9.12327528 19.0335061,8.98602776 C18.940839,8.75633059 18.8543322,8.62440039 18.7269455,8.44017369 C18.4873207,8.08838405 18.3118582,7.75096021 18.3118582,7.69070881 C18.984413,7.22218505 19.0504968,7.1663837 19.9568771,8.50695819 C20.1348222,8.97509715 19.9645513,9.36100258 19.556414,9.96733812 L19.449488,10.1236894 L18.8268434,11.0282068 C19.1131361,11.7178959 19.0940828,12.2847245 18.8768741,12.7469273 L18.812803,12.8704023 L18.6598481,15.1996869 C19.0121476,15.7930394 19.0800903,16.1861086 19.0412109,16.5630705 C19.0006829,16.9560152 18.8389986,17.3327665 18.5651246,17.6165096 C18.5031657,17.6805338 17.3139179,18.5572932 15.9873709,19.5229903 L15.8057201,19.6551596 L15.3412109,19.9926112 C13.9425756,21.0076261 12.5703799,21.9936788 12.3525995,22.1316748 C11.968311,22.3718551 11.4883071,22.4985643 10.9656791,22.4938968 C10.7059204,22.4938968 10.3984797,22.4630518 10.2787414,22.4295244 C9.74110912,22.2807154 9.1899612,21.9149028 8.87829551,21.5025445 C8.68072413,21.2423285 8.42338077,20.7210603 8.38018493,20.5002747 C8.358099,20.389845 7.84225287,20.0042766 5.26730795,17.964499 C2.3581922,15.6575747 2.18891803,15.5070886 1.98018071,15.4804413 C1.26436873,15.3888559 0.658695378,14.977563 0.278360479,14.4133103 C-0.101867599,13.849216 -0.256205675,13.1332488 -0.0732502832,12.4351353 C0.0767911234,11.8521173 0.470705883,11.3185611 0.979872897,10.9905314 L1.13595195,10.8984444 L2.49545761,8.57484484 C3.04013003,7.4387371 3.60416403,6.27595273 3.7971467,5.88607087 L3.82888738,5.82222068 L4.06807751,5.35155623 L3.36560687,4.37146238 L2.6580557,3.38259569 L1.87754226,3.36194716 C0.794639243,3.33267951 0.662310529,3.27456195 0.259237785,2.83748222 C-0.0543106893,2.49003662 -0.13064201,2.34451459 -0.143547528,1.50926728 L-0.145405529,1.31940375 L-0.145418249,0.810178752 C-0.142776459,0.113427244 -0.0968474948,0.0698304124 -0.0114299924,-0.01558709 C0.055269302,-0.0822863844 0.0704907501,-0.139445171 2.46462208,-0.147609511 L2.71205493,-0.148261169 L9.826337,-0.149109564 Z M17.2358688,15.5314176 C17.004044,15.5314176 16.6836301,15.6666786 13.6285033,16.9225762 C11.7634902,17.6910515 10.1445449,18.3815564 10.0231892,18.4579656 C9.6720128,18.6831377 9.43706344,19.0624496 9.34242043,19.4730781 C9.24773877,19.8838743 9.29290314,20.3285239 9.51052777,20.6870864 C9.68695124,20.9755891 9.89991821,21.1880552 10.1563631,21.3238607 C10.4136744,21.460125 10.7135812,21.5187426 11.0597878,21.5062291 C11.3213652,21.493959 11.4869216,21.4682933 11.6229162,21.4064776 C11.7276887,21.3584564 13.1303974,20.3684933 14.5749618,19.334935 L14.5749618,19.334935 L15.0563104,18.9900332 C16.4147601,18.0152198 17.6860558,17.0905542 17.812049,16.9728229 C17.9773305,16.8190722 18.0679807,16.6186546 18.0803136,16.4117361 C18.0927003,16.2039151 18.0261583,15.9902739 17.8797425,15.8111073 C17.7271372,15.6279917 17.5034796,15.5314176 17.2358688,15.5314176 Z M4.5350548,14.1658915 L4.47883333,14.1784356 C4.30082351,14.5294568 3.94523142,14.9164837 3.40602883,15.2435724 L3.40602883,15.2435724 L5.76375229,17.3180913 L5.77591844,17.3276302 C5.959933,17.4717817 8.17272381,19.2008087 8.39429267,19.1628314 C8.49688186,18.7013194 8.91666801,18.0692718 9.49261595,17.5996522 C9.03103295,17.2020327 4.96925888,13.9371377 4.47883333,14.1784356 Z M16.6636076,13.7782999 L16.816052,14.5893042 L16.9581685,14.5720406 C17.1605498,14.5543039 17.4088504,14.5584537 17.6352577,14.5936179 L17.6352577,14.5936179 L17.4770214,13.8237371 L17.3266971,13.8445481 C17.1263269,13.86301 16.9220238,13.8436479 16.6636076,13.7782999 L16.6636076,13.7782999 Z M2.63622423,11.6090295 C2.31750964,11.527308 1.98590431,11.5688725 1.69404189,11.7064752 C1.39891999,11.8456145 1.14414583,12.0829554 0.983217587,12.3924328 C0.864962642,12.6207876 0.855368783,12.674543 0.855368783,13.0289655 C0.855368783,13.3644266 0.868644785,13.4512662 0.958844922,13.6439664 C1.14464167,14.0403328 1.43805547,14.3043265 1.85504958,14.452958 C2.10498839,14.5430988 2.58296248,14.5203982 2.84829811,14.4142639 C3.15093641,14.2874617 3.34091446,14.1354905 3.51815275,13.8799376 C3.81110447,13.445609 3.85035342,12.9426471 3.68515104,12.5157456 C3.52010095,12.0892377 3.15177408,11.7404845 2.63622423,11.6090295 Z M17.4259591,11.0615512 C17.2658006,11.0114605 17.0926036,11.0123954 16.9166201,11.0646103 C16.7091836,11.1250756 16.5492304,11.2382121 16.4378361,11.381025 C16.3157092,11.5375976 16.2519359,11.7289773 16.2463737,11.9219434 C16.2407984,12.1153643 16.2936902,12.3107468 16.4066615,12.4747691 C16.5097612,12.624459 16.6629738,12.7473485 16.8656743,12.8198744 C17.0532969,12.8863232 17.1865246,12.8881282 17.4132982,12.8333898 C17.650553,12.7721436 17.9403132,12.5055538 17.8605973,11.3636436 C17.7340924,11.2134708 17.5870426,11.1119313 17.4259591,11.0615512 Z M6.43884396,5.08922119 L6.26322017,5.08998744 C5.6995115,5.11071912 5.24716211,5.35664679 4.96144413,5.79557586 C4.84086207,5.97744703 4.36254638,6.94643835 3.65341134,8.42675379 C3.34956077,9.06556615 3.05680772,9.69049125 2.90202532,10.6590715 C3.38930378,10.7749038 3.97455099,11.1651636 4.48914936,11.7087126 C4.69055234,11.46107 5.1391809,10.911734 5.67533376,10.2552917 L5.67533376,10.2552917 L6.08126317,9.75827091 L6.21917686,9.58837986 C7.04075244,8.57444808 7.74650218,7.67024917 7.82301251,7.53848139 C8.07852875,7.07683869 8.09495686,6.50061187 7.8545294,6.01561164 C7.70257416,5.70338399 7.48434033,5.46293858 7.21373005,5.30537698 C6.94285792,5.14766292 6.62041566,5.07337369 6.26322017,5.08998744 Z M7.19278271,3.36288475 L5.74221399,3.3627991 L5.52734849,3.36330981 C5.03035976,3.36472722 4.55189496,3.36804758 3.83943245,3.3800452 C3.9409174,3.51165601 4.11017216,3.73432799 4.33896604,4.05515959 C4.45274743,4.21397418 4.56377531,4.36082494 4.98596286,4.4555323 C5.42435525,4.19994754 5.80756754,4.09798563 6.31506227,4.09798563 C6.99238218,4.09798563 7.58320524,4.30148802 8.25921321,4.8817362 C8.32010803,4.78375353 8.50418605,4.4619249 9.01584808,4.26268121 C9.18882363,4.02006614 9.47268277,3.43674276 8.86132475,3.37590614 C8.44259975,3.36960813 7.85850947,3.36478575 7.19278271,3.36288475 L7.19278271,3.36288475 Z M12.296583,0.828591954 L0.832749051,1.3074205 L0.8332477,1.45677495 C0.837025492,1.92110499 0.866494278,2.06331698 1.05769467,2.27531046 C1.16613744,2.36215886 1.40184709,2.37128184 2.61546059,2.37412711 L2.61546059,2.37412711 L3.00973239,2.37486381 C3.08061742,2.37497902 3.15415987,2.37509639 3.23046607,2.37522487 L4.2039334,2.37511606 L4.46313135,2.3747189 C4.90661017,2.37396189 5.40801927,2.37274926 5.97514469,2.37137774 L5.97514469,2.37137774 L6.62425882,2.36982763 L6.93257182,2.36933554 L6.93257182,2.36933554 L7.22866292,2.36891884 L8.0461486,2.36803616 C8.13125095,2.36796304 8.21448591,2.36789682 8.29589587,2.36783609 L9.57333245,2.36702958 C9.63436865,2.36698371 9.69383422,2.36693483 9.75177157,2.36688153 L10.305769,2.36609855 L10.305769,2.36609855 L10.3763781,2.36593892 L10.6387527,2.36513842 C11.7902492,2.36073214 11.9430469,2.34619688 12.0278294,2.29045222 C12.2770092,2.10320865 12.2742293,2.03095363 12.2859856,1.37260155 L12.2859856,1.37260155 L12.296583,0.828591954 Z" id="Shape"></path>
                        </g>
                    </g>
                    <line x1="30.8786797" y1="4.62132034" x2="35.1213203" y2="0.378679656" id="Path-14" stroke-width="1.2" stroke-linecap="round"></line>
                    <line x1="0" y1="32.5" x2="6" y2="32.5" id="Path-14" stroke-width="1.2" stroke-linecap="round" transform="translate(3.000000, 32.500000) rotate(-45.000000) translate(-3.000000, -32.500000) "></line>
                    <polyline id="Path-15" stroke-width="1.2" stroke-linecap="round" points="32 -1.12687637e-14 36 -1.12687637e-14 36 4"></polyline>
                    <polyline id="Path-15" stroke-width="1.2" stroke-linecap="round" transform="translate(34.000000, 33.000000) scale(1, -1) translate(-34.000000, -33.000000) " points="32 31 36 31 36 35"></polyline>
                    <line x1="5.12132034" y1="4.62132034" x2="0.878679656" y2="0.378679656" id="Path-14" stroke-width="1.2" stroke-linecap="round"></line>
                    <line x1="30" y1="32.5" x2="36" y2="32.5" id="Path-14" stroke-width="1.2" stroke-linecap="round" transform="translate(33.000000, 32.500000) rotate(-135.000000) translate(-33.000000, -32.500000) "></line>
                    <polyline id="Path-15" stroke-width="1.2" stroke-linecap="round" transform="translate(2.000000, 2.000000) scale(-1, 1) translate(-2.000000, -2.000000) " points="0 -1.12687637e-14 4 -1.12687637e-14 4 4"></polyline>
                    <polyline id="Path-15" stroke-width="1.2" stroke-linecap="round" transform="translate(2.000000, 33.000000) scale(-1, -1) translate(-2.000000, -33.000000) " points="0 31 4 31 4 35"></polyline>
                </g>
                <g id="Group-4" transform="translate(508.355617, 163.278470) scale(-1, 1) translate(-508.355617, -163.278470) translate(233.078597, 105.949961)" stroke="#8C8C8C" stroke-width="2">
                    <circle id="Oval" cx="116.670565" cy="39.0750391" r="7"></circle>
                    <circle id="Oval" cx="116.670565" cy="39.0750391" r="4"></circle>
                    <circle id="Oval" cx="61.6705653" cy="37.0750391" r="7"></circle>
                    <circle id="Oval" cx="61.6705653" cy="37.0750391" r="4"></circle>
                    <circle id="Oval" cx="16.6705653" cy="71.0750391" r="4"></circle>
                    <circle id="Oval" cx="16.6705653" cy="71.0750391" r="1"></circle>
                    <path d="M3.67056529,96.0750391 L3.67056529,107.386967 C5.19388951,109.97619 6.39105348,111.999312 7.2620572,113.456332 C8.56856279,115.641861 11.596214,114.544702 10.9708706,112.549585 C10.5539751,111.219507 9.94428647,109.113216 9.14180486,106.230712 L10.9708706,96.0750391" id="Path-10" fill="#EDF5FF"></path>
                    <rect id="Rectangle" x="1.67056529" y="88.0750391" width="24" height="8" rx="2"></rect>
                    <path d="M4.63306092,83.265795 L22.761101,84.9055752 C23.0186406,84.9289879 23.2460067,85.0486604 23.4089878,85.2271301 C23.571969,85.4055998 23.6705653,85.6428668 23.6705653,85.9014684 L23.6705653,85.9014684 L23.6705653,87.0750391 C23.6705653,87.3511815 23.5586365,87.6011815 23.3776721,87.7821459 C23.1967077,87.9631103 22.9467077,88.0750391 22.6705653,88.0750391 L22.6705653,88.0750391 L4.67056529,88.0750391 C4.39442292,88.0750391 4.14442292,87.9631103 3.96345851,87.7821459 C3.7824941,87.6011815 3.67056529,87.3511815 3.67056529,87.0750391 L3.67056529,87.0750391 L3.67056529,84.2651048 C3.67056529,83.9889624 3.7824941,83.7389624 3.96345851,83.557998 C4.13619403,83.3852625 4.37182946,83.2754268 4.63306092,83.265795 L4.63306092,83.265795 Z" id="Rectangle"></path>
                    <path d="M166.652007,13.7282468 C170.224639,13.3770704 173.601393,14.5072354 176.172784,16.6183526 C178.744174,18.7294698 180.5102,21.8215393 180.861376,25.394172 C180.939676,26.1907405 180.944242,26.992838 180.875016,27.7902462 L180.875016,27.7902462 L180.142569,36.2272228 C179.832087,39.8036219 178.101377,42.9155963 175.554188,45.0558506 C173.00881,47.1945823 169.648114,48.362976 166.074562,48.0548181 L166.074562,48.0548181 L113.326807,42.645122 C110.285432,42.333106 107.60848,40.8961429 105.691872,38.7728495 C103.775264,36.6495561 102.618999,33.8399322 102.618999,30.7825947 C102.618999,27.7297273 103.777021,24.9258623 105.694598,22.8105526 C107.612175,20.695243 110.289309,19.2684886 113.327534,18.9698425 L113.327534,18.9698425 Z" id="Rectangle" transform="translate(142.474050, 30.782595) rotate(-17.000000) translate(-142.474050, -30.782595) "></path>
                    <line x1="7.95451321" y1="71.855243" x2="8.07465096" y2="83.5931324" id="Path-11"></line>
                    <line x1="21.9545132" y1="77.855243" x2="22.074651" y2="85.5931324" id="Path-11"></line>
                    <path d="M67.6442831,40.1638906 C70.7383946,39.9369499 73.6315728,40.9856301 75.8079583,42.8645734 C77.9843438,44.7435167 79.4439366,47.452723 79.6708774,50.5468346 C79.7227018,51.2534095 79.7075753,51.9633025 79.6256999,52.6670286 C79.1791399,56.5052507 77.2568307,59.8245911 74.4829516,62.1106421 C71.7090724,64.396693 68.0836232,65.6494545 64.2307829,65.3545186 L64.2307829,65.3545186 L9.37528418,61.1553172 C7.18716169,60.9878159 5.24809051,59.9918974 3.85604994,58.4892231 C2.46400938,56.9865488 1.61899944,54.9771188 1.61899944,52.7825946 C1.61899944,50.590777 2.46482173,48.5847362 3.85713043,47.0865672 C5.24943913,45.5883982 7.18823423,44.5981009 9.37417986,44.4377705 L9.37417986,44.4377705 Z" id="Rectangle" transform="translate(41.474050, 52.782595) rotate(-37.000000) translate(-41.474050, -52.782595) "></path>
                    <line x1="63.4135914" y1="24.2490864" x2="108.670565" y2="29.0750391" id="Path-12"></line>
                    <line x1="70.4857655" y1="46.0243771" x2="111.670565" y2="50.0750391" id="Path-12"></line>
                    <line x1="23.05404" y1="96.0750391" x2="23.05404" y2="103.075039" id="Path-3"></line>
                    <line x1="18.05404" y1="96.0750391" x2="18.05404" y2="103.075039" id="Path-3"></line>
                    <line x1="545.05404" y1="96.0750391" x2="545.05404" y2="103.075039" id="Path-3"></line>
                    <line x1="550.05404" y1="96.0750391" x2="550.05404" y2="103.075039" id="Path-3"></line>
                </g>
                <g id="Group-4" transform="translate(216.329435, 105.949961)" stroke="#8C8C8C" stroke-width="2">
                    <circle id="Oval" cx="116.670565" cy="39.0750391" r="7"></circle>
                    <circle id="Oval" cx="116.670565" cy="39.0750391" r="4"></circle>
                    <circle id="Oval" cx="61.6705653" cy="37.0750391" r="7"></circle>
                    <circle id="Oval" cx="61.6705653" cy="37.0750391" r="4"></circle>
                    <circle id="Oval" cx="16.6705653" cy="71.0750391" r="4"></circle>
                    <circle id="Oval" cx="16.6705653" cy="71.0750391" r="1"></circle>
                    <path d="M3.67056529,96.0750391 L3.67056529,107.386967 C5.19388951,109.97619 6.39105348,111.999312 7.2620572,113.456332 C8.56856279,115.641861 11.596214,114.544702 10.9708706,112.549585 C10.5539751,111.219507 9.94428647,109.113216 9.14180486,106.230712 L10.9708706,96.0750391" id="Path-10" fill="#E6EEF8"></path>
                    <rect id="Rectangle" x="1.67056529" y="88.0750391" width="24" height="8" rx="2"></rect>
                    <path d="M4.63306092,83.265795 L22.761101,84.9055752 C23.0186406,84.9289879 23.2460067,85.0486604 23.4089878,85.2271301 C23.571969,85.4055998 23.6705653,85.6428668 23.6705653,85.9014684 L23.6705653,85.9014684 L23.6705653,87.0750391 C23.6705653,87.3511815 23.5586365,87.6011815 23.3776721,87.7821459 C23.1967077,87.9631103 22.9467077,88.0750391 22.6705653,88.0750391 L22.6705653,88.0750391 L4.67056529,88.0750391 C4.39442292,88.0750391 4.14442292,87.9631103 3.96345851,87.7821459 C3.7824941,87.6011815 3.67056529,87.3511815 3.67056529,87.0750391 L3.67056529,87.0750391 L3.67056529,84.2651048 C3.67056529,83.9889624 3.7824941,83.7389624 3.96345851,83.557998 C4.13619403,83.3852625 4.37182946,83.2754268 4.63306092,83.265795 L4.63306092,83.265795 Z" id="Rectangle"></path>
                    <path d="M166.652007,13.7282468 C170.224639,13.3770704 173.601393,14.5072354 176.172784,16.6183526 C178.744174,18.7294698 180.5102,21.8215393 180.861376,25.394172 C180.939676,26.1907405 180.944242,26.992838 180.875016,27.7902462 L180.875016,27.7902462 L180.142569,36.2272228 C179.832087,39.8036219 178.101377,42.9155963 175.554188,45.0558506 C173.00881,47.1945823 169.648114,48.362976 166.074562,48.0548181 L166.074562,48.0548181 L113.326807,42.645122 C110.285432,42.333106 107.60848,40.8961429 105.691872,38.7728495 C103.775264,36.6495561 102.618999,33.8399322 102.618999,30.7825947 C102.618999,27.7297273 103.777021,24.9258623 105.694598,22.8105526 C107.612175,20.695243 110.289309,19.2684886 113.327534,18.9698425 L113.327534,18.9698425 Z" id="Rectangle" transform="translate(142.474050, 30.782595) rotate(-17.000000) translate(-142.474050, -30.782595) "></path>
                    <line x1="7.95451321" y1="71.855243" x2="8.07465096" y2="83.5931324" id="Path-11"></line>
                    <line x1="21.9545132" y1="77.855243" x2="22.074651" y2="85.5931324" id="Path-11"></line>
                    <path d="M67.6442831,40.1638906 C70.7383946,39.9369499 73.6315728,40.9856301 75.8079583,42.8645734 C77.9843438,44.7435167 79.4439366,47.452723 79.6708774,50.5468346 C79.7227018,51.2534095 79.7075753,51.9633025 79.6256999,52.6670286 C79.1791399,56.5052507 77.2568307,59.8245911 74.4829516,62.1106421 C71.7090724,64.396693 68.0836232,65.6494545 64.2307829,65.3545186 L64.2307829,65.3545186 L9.37528418,61.1553172 C7.18716169,60.9878159 5.24809051,59.9918974 3.85604994,58.4892231 C2.46400938,56.9865488 1.61899944,54.9771188 1.61899944,52.7825946 C1.61899944,50.590777 2.46482173,48.5847362 3.85713043,47.0865672 C5.24943913,45.5883982 7.18823423,44.5981009 9.37417986,44.4377705 L9.37417986,44.4377705 Z" id="Rectangle" transform="translate(41.474050, 52.782595) rotate(-37.000000) translate(-41.474050, -52.782595) "></path>
                    <line x1="63.4135914" y1="24.2490864" x2="108.670565" y2="29.0750391" id="Path-12"></line>
                    <line x1="70.4857655" y1="46.0243771" x2="111.670565" y2="50.0750391" id="Path-12"></line>
                </g>
                <path d="M650.468,160.623 C650.468,174.041 641.56,185.368 629.352,189.025 L408.02,189.025 C375.961,189.025 349.952,163.015 349.952,130.957 C349.952,101.921 371.287,77.864 399.14,73.575 C398.947,72.007 398.837,70.385 398.837,68.763 C398.837,46.988 416.489,29.336 438.264,29.336 C447.97,29.336 456.878,32.882 463.752,38.739 C472.193,16.111 493.996,0 519.539,0 C552.367,0 578.982,26.614 578.982,59.443 C578.982,64.227 578.432,68.874 577.333,73.3 C579.257,73.052 581.209,72.915 583.216,72.915 C608.621,72.915 629.215,93.508 629.215,118.914 C629.215,123.34 628.583,127.629 627.4,131.699 C640.598,134.696 650.468,146.491 650.468,160.623" id="Fill-5" fill="#FFFFFF"></path>
            </g>
        </g>
    </g>
</svg>