<svg width="326" height="380" xmlns="http://www.w3.org/2000/svg" xmlns:xlink="http://www.w3.org/1999/xlink" xml:space="preserve" overflow="hidden"><g transform="translate(-94 -220)"><g><g><g><g><text fill="#AFABAB" fill-opacity="1" font-family="Candara,Candara_MSFontService,sans-serif" font-style="normal" font-variant="normal" font-weight="400" font-stretch="normal" font-size="20" text-anchor="start" direction="ltr" writing-mode="lr-tb" unicode-bidi="normal" text-decoration="none" transform="matrix(0.447658 0 0 0.446809 157.413 591)">Template from </text><text fill="#AFABAB" fill-opacity="1" font-family="Candara,Candara_MSFontService,sans-serif" font-style="normal" font-variant="normal" font-weight="400" font-stretch="normal" font-size="20" text-anchor="start" direction="ltr" writing-mode="lr-tb" unicode-bidi="normal" text-decoration="none" transform="matrix(0.447658 0 0 0.446809 215.497 591)">PresentationGO.com</text><path d="M65.7894 92.9455C112.229 93.2851 189.051 103.217 268.532 153.771L228.052 172.915 224.882 171.149C191.377 153.083 134.168 127.928 75.5674 128.07L72.664 128.176 38.8139 115.999 21 95.991C21 95.991 37.926 92.7418 65.7894 92.9455Z" fill="#343434" fill-rule="evenodd" fill-opacity="1" transform="matrix(1.0019 0 0 1 74.4077 128.064)"/><path d="M71.2338 151.918C109.985 151.741 182.074 159.384 246.638 210.112L210.835 226.979 210.32 226.617C186.286 210.296 146.069 188.054 101.7 184.783L100.75 184.748 66.5736 178.746 42.8936 153.695C42.8936 153.695 53.6197 151.998 71.2338 151.918Z" fill="#2B4563" fill-rule="evenodd" fill-opacity="1" transform="matrix(1.0019 0 0 1 74.4077 128.064)"/><path d="M94.5407 205.118C125.59 204.459 176.25 213.263 225.638 264.911L195.251 278.809 189.387 273.338C172.474 258.282 147.613 241.361 118.793 238.069L118.165 238.026 106.758 228.99 64.3404 209.317C64.3404 209.317 75.9105 205.514 94.5407 205.118Z" fill="#902411" fill-rule="evenodd" fill-opacity="1" transform="matrix(1.0019 0 0 1 74.4077 128.064)"/><path d="M114.502 256.929C137.389 256.469 170.921 267.224 204.638 318.786L175.648 327.957 172.53 324.078C161.441 310.807 146.856 296.478 131.96 290.773L131.839 290.735 100.691 279.858 85.3404 264.427C85.3404 264.427 96.7014 257.286 114.502 256.929Z" fill="#13A1D8" fill-rule="evenodd" fill-opacity="1" transform="matrix(1.0019 0 0 1 74.4077 128.064)"/><path d="M124.066 309.678C138.34 308.897 160.016 319.297 184.532 370.921L164.039 382.915 161.215 377.079C157.144 369.09 152.192 360.736 146.769 354.454L143.315 350.917 123.256 333.226 106.34 317.657C106.34 317.657 112.964 310.286 124.066 309.678Z" fill="#7D9445" fill-rule="evenodd" fill-opacity="1" transform="matrix(1.0019 0 0 1 74.4077 128.064)"/><path d="M134.197 360.756C137.353 359.759 140.129 362.939 142.546 368.609L143.676 371.645 146.769 403.382 150.756 403.456 152.068 412.218C152.684 416.829 153.22 421.324 153.679 425.493 154.087 429.121 148.93 430.328 147.631 426.922L138.696 403.232 136.593 386.66 126.491 370.874 126.447 370.757C129.25 364.6 131.831 361.503 134.197 360.756Z" fill="#F8B100" fill-rule="evenodd" fill-opacity="1" transform="matrix(1.0019 0 0 1 74.4077 128.064)"/><path d="M48.2553 159.511 54.8842 161.081C68.1651 164.028 84.7797 167.083 103.85 169.276 124.311 171.633 149.54 173.167 177.608 171.984L179.466 171.861 185.186 174.085C197.441 179.189 209.88 185.42 222.235 193.01L230.106 198.155 229.276 198.306C212.494 200.84 196.234 202.324 180.77 203.032L169.082 203.298 163.642 200.77C145.014 192.767 123.841 186.393 101.627 184.759L100.676 184.724 66.4565 178.727Z" fill="#000000" fill-rule="evenodd" fill-opacity="0.25098" transform="matrix(1.0019 0 0 1 74.4077 128.064)"/><path d="M158.117 198.83C187.256 198.83 220.117 196.285 254.521 189.013L268.085 153.884C204.583 170.83 144.709 169.411 103.873 164.721 78.4967 161.81 57.4788 157.375 42.8936 153.702L56.3841 188.576C68.7384 191.085 83.1779 193.521 99.3376 195.412 116.196 197.376 136.119 198.83 158.117 198.83Z" fill="#4472C4" fill-rule="evenodd" fill-opacity="1" transform="matrix(1.0019 0 0 1 74.4077 128.064)"/><text fill="#FFFFFF" fill-opacity="1" font-family="Calibri,Calibri_MSFontService,sans-serif" font-style="normal" font-variant="normal" font-weight="700" font-stretch="normal" font-size="48" text-anchor="start" direction="ltr" writing-mode="lr-tb" unicode-bidi="normal" text-decoration="none" transform="matrix(0.447658 0 0 0.446809 136.06 309)">02</text><path d="M80.4255 216.702 82.8115 217.128C89.4274 218.184 96.4606 219.172 103.87 220.031 122.01 222.116 143.902 223.56 168.2 223.044L170.585 222.945 170.625 222.963C182.491 228.995 194.769 236.916 207.13 247.246L211.787 251.364 194.707 252.991C188.393 253.462 182.191 253.798 176.119 254.016L163.935 254.234 158.523 251.038C146.575 244.537 133.137 239.501 118.709 237.86L118.079 237.817 106.658 228.812Z" fill="#000000" fill-rule="evenodd" fill-opacity="0.25098" transform="matrix(1.0019 0 0 1 74.4077 128.064)"/><path d="M103.864 215.792C89.0771 214.067 75.793 211.829 64.3404 209.553L77.4391 243.718C84.3257 244.818 91.6091 245.846 99.3313 246.764 116.202 248.745 136.146 250.213 158.182 250.213 181.306 250.213 206.786 248.598 233.498 244.268L246.638 210.029C191.231 221.589 140.062 219.976 103.864 215.792Z" fill="#5B9BD5" fill-rule="evenodd" fill-opacity="1" transform="matrix(1.0019 0 0 1 74.4077 128.064)"/><text fill="#FFFFFF" fill-opacity="1" font-family="Calibri,Calibri_MSFontService,sans-serif" font-style="normal" font-variant="normal" font-weight="700" font-stretch="normal" font-size="48" text-anchor="start" direction="ltr" writing-mode="lr-tb" unicode-bidi="normal" text-decoration="none" transform="matrix(0.447658 0 0 0.446809 157.689 363)">03</text><path d="M90.2553 269.426 103.769 271.228C119.574 273.02 138.232 274.34 158.847 274.313L164.5 274.211 167.544 276.406C175.593 282.614 183.899 290.656 192.299 300.991L194.362 303.666 184.733 304.465C175.602 304.953 166.736 305.17 158.192 305.17L154.778 305.116 153.842 304.236C146.929 298.35 139.539 293.4 132.071 290.58L131.95 290.542 100.716 279.791Z" fill="#000000" fill-rule="evenodd" fill-opacity="0.25098" transform="matrix(1.0019 0 0 1 74.4077 128.064)"/><path d="M103.781 266.54C97.3305 265.813 91.1668 264.975 85.3404 264.064L98.1361 297.133C98.4998 297.169 98.8702 297.206 99.2339 297.279 116.134 299.245 136.114 300.702 158.185 300.702 175.267 300.702 193.636 299.829 212.843 297.642L225.638 264.61C178.385 271.858 135.38 270.147 103.781 266.54Z" fill="#A5A5A5" fill-rule="evenodd" fill-opacity="1" transform="matrix(1.0019 0 0 1 74.4077 128.064)"/><text fill="#404040" fill-opacity="1" font-family="Calibri,Calibri_MSFontService,sans-serif" font-style="normal" font-variant="normal" font-weight="700" font-stretch="normal" font-size="48" text-anchor="start" direction="ltr" writing-mode="lr-tb" unicode-bidi="normal" text-decoration="none" transform="matrix(0.447658 0 0 0.446809 178.733 419)">04</text><path d="M111.702 323.043 116.361 323.504C127.039 324.444 138.724 325.113 151.206 325.298L154.984 325.249 158.455 328.969C163.915 335.2 169.662 343.303 175.622 353.747L176.936 356.16 174.946 356.265C169.23 356.462 163.629 356.553 158.167 356.553L148.032 356.35 146.782 354.764 143.312 351.229 123.164 333.542Z" fill="#000000" fill-rule="evenodd" fill-opacity="0.25098" transform="matrix(1.0019 0 0 1 74.4077 128.064)"/><path d="M106.34 317.681 118.81 350.534C130.915 351.494 144.112 352.085 158.188 352.085 169.051 352.085 180.464 351.716 192.242 350.865L204.638 318.162C166.903 322.152 132.812 320.637 106.34 317.681Z" fill="#70AD47" fill-rule="evenodd" fill-opacity="1" transform="matrix(1.0019 0 0 1 74.4077 128.064)"/><text fill="#404040" fill-opacity="1" font-family="Calibri,Calibri_MSFontService,sans-serif" font-style="normal" font-variant="normal" font-weight="700" font-stretch="normal" font-size="48" text-anchor="start" direction="ltr" writing-mode="lr-tb" unicode-bidi="normal" text-decoration="none" transform="matrix(0.447658 0 0 0.446809 199.482 469)">05</text><path d="M129.574 375.766 143.706 376.397 144.185 376.408 146.83 403.418 150.8 403.492 151.468 407.936 150.756 407.923 140.483 407.732 138.792 403.27 136.699 386.847Z" fill="#000000" fill-rule="evenodd" fill-opacity="0.25098" transform="matrix(1.0019 0 0 1 74.4077 128.064)"/><path d="M126.447 370.851 143.423 371.619 153.646 371.855C163.511 371.934 173.84 371.711 184.532 371.1L172.11 403.246C167.239 403.394 162.406 403.468 157.72 403.468L150.418 403.331 138.503 403.107 126.447 370.851Z" fill="#FFC000" fill-rule="evenodd" fill-opacity="1" transform="matrix(1.0019 0 0 1 74.4077 128.064)"/><text fill="#404040" fill-opacity="1" font-family="Calibri,Calibri_MSFontService,sans-serif" font-style="normal" font-variant="normal" font-weight="700" font-stretch="normal" font-size="48" text-anchor="start" direction="ltr" writing-mode="lr-tb" unicode-bidi="normal" text-decoration="none" transform="matrix(0.447658 0 0 0.446809 220.012 522)">06</text><path d="M27.7021 103.213 28.6608 103.511C41.3103 107.307 68.4529 114.519 104.184 118.653 126.975 121.279 155.702 122.895 187.687 120.838L201.68 119.542 209.861 122.811C219.411 126.846 229.11 131.397 238.905 136.524L252 143.737 245.263 145.144C224.667 149.05 204.706 151.288 185.858 152.347L185.317 152.362 178.382 149.45C148.3 137.645 112.228 127.821 75.613 127.91L72.7105 128.016 38.8699 115.799Z" fill="#000000" fill-rule="evenodd" fill-opacity="0.25098" transform="matrix(1.0019 0 0 1 74.4077 128.064)"/><path d="M158.295 147.894C193.495 147.894 234.095 144.135 276.281 132.716L290.426 95.617C218.853 119.822 149.588 118.604 104.048 113.338 56.4493 107.81 24.1059 96.7957 21 95.7283L35.0326 132.569C50.5743 136.548 72.6899 141.299 99.5199 144.467 116.359 146.42 136.279 147.894 158.295 147.894Z" fill="#BDBDBD" fill-rule="evenodd" fill-opacity="1" transform="matrix(1.0019 0 0 1 74.4077 128.064)"/><text fill="#404040" fill-opacity="1" font-family="Calibri,Calibri_MSFontService,sans-serif" font-style="normal" font-variant="normal" font-weight="700" font-stretch="normal" font-size="48" text-anchor="start" direction="ltr" writing-mode="lr-tb" unicode-bidi="normal" text-decoration="none" transform="matrix(0.447658 0 0 0.446809 114.063 256)">01</text><text fill="#000000" fill-opacity="1" font-family="Candara,Candara_MSFontService,sans-serif" font-style="normal" font-variant="normal" font-weight="400" font-stretch="normal" font-size="32" text-anchor="start" direction="ltr" writing-mode="lr-tb" unicode-bidi="normal" text-decoration="none" transform="matrix(0.447658 0 0 0.446809 200.399 367)">Hit to lead</text><text fill="#000000" fill-opacity="1" font-family="Candara,Candara_MSFontService,sans-serif" font-style="normal" font-variant="normal" font-weight="400" font-stretch="normal" font-size="32" text-anchor="start" direction="ltr" writing-mode="lr-tb" unicode-bidi="normal" text-decoration="none" transform="matrix(0.447658 0 0 0.446809 168.426 264)">Target identification</text><text fill="#000000" fill-opacity="1" font-family="Candara,Candara_MSFontService,sans-serif" font-style="normal" font-variant="normal" font-weight="400" font-stretch="normal" font-size="32" text-anchor="start" direction="ltr" writing-mode="lr-tb" unicode-bidi="normal" text-decoration="none" transform="matrix(0.447658 0 0 0.446809 178.012 316)">Hit identification</text><text fill="#000000" fill-opacity="1" font-family="Candara,Candara_MSFontService,sans-serif" font-style="normal" font-variant="normal" font-weight="400" font-stretch="normal" font-size="32" text-anchor="start" direction="ltr" writing-mode="lr-tb" unicode-bidi="normal" text-decoration="none" transform="matrix(0.447658 0 0 0.446809 223.348 415)">Lead optimization</text><text fill="#000000" fill-opacity="1" font-family="Candara,Candara_MSFontService,sans-serif" font-style="normal" font-variant="normal" font-weight="400" font-stretch="normal" font-size="32" text-anchor="start" direction="ltr" writing-mode="lr-tb" unicode-bidi="normal" text-decoration="none" transform="matrix(0.447658 0 0 0.446809 238.704 466)">Preclinical trials</text><text fill="#000000" fill-opacity="1" font-family="Candara,Candara_MSFontService,sans-serif" font-style="normal" font-variant="normal" font-weight="400" font-stretch="normal" font-size="32" text-anchor="start" direction="ltr" writing-mode="lr-tb" unicode-bidi="normal" text-decoration="none" transform="matrix(0.447658 0 0 0.446809 257.624 520)">Clinical trials</text></g></g></g></g></g></svg>