<?xml version="1.0" encoding="UTF-8"?>
<svg width="450px" height="450px" viewBox="0 0 450 450" version="1.1" xmlns="http://www.w3.org/2000/svg" xmlns:xlink="http://www.w3.org/1999/xlink">
    <title>Startup-2</title>
    <defs>
        <path d="M242.888544,35.7770876 L435.527864,421.055728 C440.467649,430.935298 436.463162,442.948759 426.583592,447.888544 C423.806483,449.277098 420.744222,450 417.63932,450 L32.3606798,450 C21.3149848,450 12.3606798,441.045695 12.3606798,430 C12.3606798,426.895098 13.0835816,423.832837 14.472136,421.055728 L207.111456,35.7770876 C212.051241,25.8975177 224.064702,21.8930308 233.944272,26.8328157 C237.81482,28.7680898 240.95327,31.9065396 242.888544,35.7770876 Z" id="path-1"></path>
    </defs>
    <g id="Page-1" stroke="none" stroke-width="1" fill="none" fill-rule="evenodd">
        <g id="Open-Science-Stack-Website---3" transform="translate(-677.000000, -15499.000000)">
            <g id="Startup-2" transform="translate(677.000000, 15499.000000)">
                <g>
                    <mask id="mask-2" fill="white">
                        <use xlink:href="#path-1"></use>
                    </mask>
                    <use id="Mask" fill="#FFFFFF" xlink:href="#path-1"></use>
                    <rect id="Rectangle" fill="#4C9CFF" opacity="0.200000003" mask="url(#mask-2)" x="0" y="341" width="440" height="129"></rect>
                    <polygon id="Rectangle" fill="#4C9CFF" opacity="0.5" mask="url(#mask-2)" points="0 212 440 212 440 335 0 335"></polygon>
                    <rect id="Rectangle" fill="#4C9CFF" mask="url(#mask-2)" x="0" y="22" width="440" height="190"></rect>
                    <rect id="Rectangle" fill="#FFFFFF" mask="url(#mask-2)" x="114" y="210" width="220" height="10"></rect>
                    <rect id="Rectangle" fill="#FFFFFF" mask="url(#mask-2)" x="44" y="330" width="360" height="10"></rect>
                </g>
                <text id="20.66%" font-family="Varta-Bold, Varta" font-size="20" font-weight="bold" line-spacing="20" fill="#FFFFFF">
                    <tspan x="194" y="134">20.66%</tspan>
                </text>
                <text id="Average-improvement" font-family="Varta-Regular, Varta" font-size="18" font-weight="normal" line-spacing="20" fill="#FFFFFF">
                    <tspan x="191.931152" y="148.720703">Average </tspan>
                    <tspan x="162.109863" y="168.720703">improvement in </tspan>
                    <tspan x="166.416504" y="188.720703">time to market</tspan>
                </text>
                <text id="19.63%" font-family="Varta-Bold, Varta" font-size="20" font-weight="bold" line-spacing="20" fill="#333333">
                    <tspan x="194" y="264">19.63%</tspan>
                </text>
                <text id="Average-increase-in" font-family="Varta-Regular, Varta" font-size="18" font-weight="normal" line-spacing="20" fill="#333333">
                    <tspan x="149.677734" y="278.720703">Average increase in </tspan>
                    <tspan x="158.365723" y="298.720703">company growth</tspan>
                </text>
                <text id="18.80%" font-family="Varta-Bold, Varta" font-size="20" font-weight="bold" line-spacing="20" fill="#333333">
                    <tspan x="194" y="387">18.80%</tspan>
                </text>
                <text id="Average-increase-in" font-family="Varta-Regular, Varta" font-size="18" font-weight="normal" line-spacing="20" fill="#333333">
                    <tspan x="149.677734" y="401.720703">Average increase in </tspan>
                    <tspan x="155.557617" y="421.720703">process efficiency</tspan>
                </text>
            </g>
        </g>
    </g>
</svg>